<svg xmlns="http://www.w3.org/2000/svg" viewBox="0 0 500 500"><g id="freepik--background-complete--inject-6"><rect y="382.4" width="500" height="0.25" style="fill:#e0e0e0"></rect><rect x="343.26" y="392.99" width="34.4" height="0.25" style="fill:#e0e0e0"></rect><rect x="91.68" y="393.11" width="19.36" height="0.25" style="fill:#e0e0e0"></rect><rect x="211.76" y="392.53" width="39.24" height="0.25" style="fill:#e0e0e0"></rect><rect x="193.22" y="388.97" width="17.54" height="0.25" style="fill:#e0e0e0"></rect><rect x="371.57" y="389.1" width="52.99" height="0.25" style="fill:#e0e0e0"></rect><path d="M237,337.8H43.91a5.71,5.71,0,0,1-5.7-5.71V60.66A5.71,5.71,0,0,1,43.91,55H237a5.71,5.71,0,0,1,5.71,5.71V332.09A5.71,5.71,0,0,1,237,337.8ZM43.91,55.2a5.46,5.46,0,0,0-5.45,5.46V332.09a5.46,5.46,0,0,0,5.45,5.46H237a5.47,5.47,0,0,0,5.46-5.46V60.66A5.47,5.47,0,0,0,237,55.2Z" style="fill:#e0e0e0"></path><path d="M453.31,337.8H260.21a5.72,5.72,0,0,1-5.71-5.71V60.66A5.72,5.72,0,0,1,260.21,55h193.1A5.71,5.71,0,0,1,459,60.66V332.09A5.71,5.71,0,0,1,453.31,337.8ZM260.21,55.2a5.47,5.47,0,0,0-5.46,5.46V332.09a5.47,5.47,0,0,0,5.46,5.46h193.1a5.47,5.47,0,0,0,5.46-5.46V60.66a5.47,5.47,0,0,0-5.46-5.46Z" style="fill:#e0e0e0"></path><path d="M439.31,257.23c-12.3-18.73-1.07-38.86-2.94-59.7s-21.67-25.38-17.92-43c4.34-20.48-7.23-40.13-20.34-40.13S373.44,134,377.78,154.5c3.75,17.65-16,22.2-17.92,43s9.36,41-2.95,59.7-9.07,43.53-2.14,55.84a47.73,47.73,0,0,0,6.62,9.05,50.19,50.19,0,0,0,73.45,0,48.13,48.13,0,0,0,6.61-9.05C448.39,300.76,451.62,276,439.31,257.23Z" style="fill:#e0e0e0"></path><path d="M398.11,271.44h0a6.22,6.22,0,0,1,6.22,6.22V382.4a0,0,0,0,1,0,0H391.89a0,0,0,0,1,0,0V277.66A6.22,6.22,0,0,1,398.11,271.44Z" style="fill:#f0f0f0"></path><path d="M319.91,382.4H303V277.67a8.49,8.49,0,0,1,8.47-8.47h0a8.49,8.49,0,0,1,8.47,8.47Z" style="fill:#e0e0e0"></path><circle cx="311.44" cy="301.98" r="52.17" style="fill:#f0f0f0"></circle><circle cx="352.79" cy="281.38" r="20.56" transform="translate(-5.34 555.92) rotate(-76.05)" style="fill:#f0f0f0"></circle><circle cx="269.25" cy="269.2" r="12.17" transform="translate(-39.74 491.67) rotate(-80.75)" style="fill:#f0f0f0"></circle><circle cx="282.48" cy="262.9" r="8.54" style="fill:#f0f0f0"></circle><path d="M204,319.89a56.55,56.55,0,0,0-22.72,8.67c-.06-7.92-1.51-15.43-5.23-21.5-5.66,5.51-10.25,12.65-14,20.33C160.68,313,156.89,299,148.5,290.13c-12.57,7.91-19.05,21.09-22.13,35.05A63.47,63.47,0,0,0,104.9,302c-7.69,8.1-10.15,19.3-9.94,30.78-8.74-10.18-18.44-18.12-27.9-19.05C64.73,329.82,69.69,345,76,357a47.92,47.92,0,0,0,42.47,25.41h41.09c17.51,0,33.93-9.34,42.14-24.81C206.89,347.8,209.37,335.19,204,319.89Z" style="fill:#e0e0e0"></path><path d="M192.26,112.14c5.07-14.87,1-25.46-11.37-25.46-7.78,0-17.43,4.17-26.83,10.95-1.06-3.87-4.05-6.18-8.86-6.18-8.47,0-20.14,7.16-29.29,17.26a14,14,0,0,0-9.54-3.85c-8.11-.46-17.92,3.66-26.45,10.35a4.61,4.61,0,0,0-3.76-1.93c-4.67-.26-11,3.9-14.13,9.28-.19.33-.36.66-.54,1H194.72C195.12,118.86,194.29,114.94,192.26,112.14Z" style="fill:#f0f0f0"></path><path d="M192.67,202.43c2.48-7.26.51-12.43-5.55-12.43-3.81,0-8.52,2-13.11,5.35a4.06,4.06,0,0,0-4.33-3c-4.13,0-9.83,3.5-14.31,8.44a6.79,6.79,0,0,0-4.66-1.88c-4-.23-8.75,1.78-12.92,5.05A2.25,2.25,0,0,0,136,203c-2.28-.13-5.37,1.9-6.9,4.53l-.27.48h65.08A8.17,8.17,0,0,0,192.67,202.43Z" style="fill:#f0f0f0"></path><path d="M342.77,147.49a11.31,11.31,0,0,0-1.55-.11c.48-7.25-2.29-11.89-8.22-11.89-4.27,0-9.52,2.42-14.86,6.51,1.53-14.08-3.37-23.23-14.47-23.23-8.94,0-20.27,6-31.46,15.66-1-5.52-4.28-8.84-9.82-8.84-9.73,0-23.56,10.24-34.65,24.68h0A14,14,0,0,0,217,144.74c-9.26-.65-20.77,5.23-31,14.81a4.73,4.73,0,0,0-4.21-2.75c-5.07-.36-12,4.93-16.11,12H350.92C355.27,158.08,351.81,148.7,342.77,147.49Z" style="fill:#f0f0f0"></path></g><g id="freepik--Shadow--inject-6"><ellipse cx="250" cy="416.24" rx="193.89" ry="11.32" style="fill:#f5f5f5"></ellipse></g><g id="freepik--Mail--inject-6"><polygon points="48.86 150.56 276.83 183.38 307.42 214.25 48.86 150.56" style="fill:#66C4C6"></polygon><polygon points="48.86 150.56 276.83 183.38 307.42 214.25 48.86 150.56" style="fill:#fff;opacity:0.6000000000000001"></polygon><polygon points="48.86 150.56 276.83 183.38 266.25 228.02 48.86 150.56" style="fill:#66C4C6"></polygon><polygon points="48.86 150.56 276.83 183.38 266.25 228.02 48.86 150.56" style="opacity:0.2"></polygon><path d="M261.57,98.88l13.23,62a6.25,6.25,0,0,1-4.8,7.41l-118.08,25.2a6.26,6.26,0,0,1-7.41-4.8l-13.24-62a6.26,6.26,0,0,1,4.81-7.41l118.08-25.2a6.26,6.26,0,0,1,7.41,4.81Z" style="fill:#66C4C6"></path><path d="M261.57,98.88l13.23,62a6.25,6.25,0,0,1-4.8,7.41l-118.08,25.2a6.26,6.26,0,0,1-7.41-4.8l-13.24-62a6.26,6.26,0,0,1,4.81-7.41l118.08-25.2a6.26,6.26,0,0,1,7.41,4.81Z" style="opacity:0.4"></path><path d="M258.66,94.82l-39.45,48.43a25.43,25.43,0,0,1-31.15,6.65l-55.79-28.1a6.22,6.22,0,0,1,3.81-2.53l118.08-25.2A6.23,6.23,0,0,1,258.66,94.82Z" style="fill:#66C4C6"></path><polygon points="48.86 150.56 236.89 195.25 266.25 228.02 48.86 150.56" style="fill:#66C4C6"></polygon><polygon points="48.86 150.56 236.89 195.25 266.25 228.02 48.86 150.56" style="fill:#fff;opacity:0.6000000000000001"></polygon><rect x="127.15" y="188.08" width="1" height="24.25" transform="translate(-109.61 209.15) rotate(-59.64)" style="fill:#66C4C6"></rect><rect x="150.62" y="209.59" width="1" height="8.72" transform="translate(-109.87 236.19) rotate(-59.64)" style="fill:#66C4C6"></rect><polygon points="48.86 150.56 236.89 195.25 200.34 239.3 48.86 150.56" style="fill:#66C4C6"></polygon><path d="M300.36,255.26a2,2,0,0,1-.74-.14L269,243a2,2,0,0,1,1.47-3.72L301.1,251.4a2,2,0,0,1-.74,3.86Z" style="fill:#66C4C6"></path><path d="M300.36,255.26a2,2,0,0,1-.74-.14L269,243a2,2,0,0,1,1.47-3.72L301.1,251.4a2,2,0,0,1-.74,3.86Z" style="opacity:0.30000000000000004"></path><path d="M298.55,237.7a1.91,1.91,0,0,1-.73-.15L281.37,231a2,2,0,1,1,1.47-3.72l16.45,6.52a2,2,0,0,1,1.13,2.59A2,2,0,0,1,298.55,237.7Z" style="fill:#66C4C6"></path><path d="M298.55,237.7a1.91,1.91,0,0,1-.73-.15L281.37,231a2,2,0,1,1,1.47-3.72l16.45,6.52a2,2,0,0,1,1.13,2.59A2,2,0,0,1,298.55,237.7Z" style="fill:#fff;opacity:0.5"></path><path d="M264.16,255a2.1,2.1,0,0,1-.73-.14L233.56,243a2,2,0,1,1,1.47-3.72L264.9,251.1a2,2,0,0,1-.74,3.86Z" style="fill:#66C4C6"></path><path d="M264.16,255a2.1,2.1,0,0,1-.73-.14L233.56,243a2,2,0,1,1,1.47-3.72L264.9,251.1a2,2,0,0,1-.74,3.86Z" style="opacity:0.30000000000000004"></path></g></svg>